<?xml version="1.0" encoding="UTF-8" standalone="no"?><!-- Generator: Gravit.io --><svg xmlns="http://www.w3.org/2000/svg" xmlns:xlink="http://www.w3.org/1999/xlink" style="isolation:isolate" viewBox="0 0 250 250" width="250pt" height="250pt"><defs><clipPath id="_clipPath_L5deFJjbWRNagByjHzcsnQ3w46eijQ2p"><rect width="250" height="250"/></clipPath></defs><g clip-path="url(#_clipPath_L5deFJjbWRNagByjHzcsnQ3w46eijQ2p)"><line x1="389.042" y1="255" x2="389.042" y2="667" vector-effect="non-scaling-stroke" stroke-width="1" stroke="rgb(0,0,0)" stroke-linejoin="miter" stroke-linecap="square" stroke-miterlimit="3"/><line x1="231" y1="-20.138" x2="0" y2="-20.138" vector-effect="non-scaling-stroke" stroke-width="1" stroke="rgb(0,0,0)" stroke-linejoin="miter" stroke-linecap="square" stroke-miterlimit="3"/><line x1="375" y1="-27.138" x2="144" y2="-27.138" vector-effect="non-scaling-stroke" stroke-width="1" stroke="rgb(0,0,0)" stroke-linejoin="miter" stroke-linecap="square" stroke-miterlimit="3"/><path d=" M 722.938 375.447 C 723.962 373.896 725.448 373.061 727.366 372.913 L 743.241 372.934 C 746.991 372.98 749.491 376.98 747.428 380.73 L 735.074 400.743 C 731.116 405.855 723.366 400.98 726.644 395.537 L 732.417 385.826 C 732.603 384.159 730.936 383.048 729.31 384.149 L 687.594 451.211 C 682.668 458.807 679.015 459.036 676.158 454.812 L 674.207 440.769 L 647.385 457.297 C 641.337 460.292 637.969 454.868 641.282 449.46 L 665.599 410.608 C 666.756 408.495 667.815 407.878 669.777 407.853 L 683.334 407.814 C 689.242 408.054 690.564 416.695 683.245 417.765 L 675.927 417.765 C 673.749 417.87 672.223 418.723 671.318 420.296 L 658.277 440.064 L 674.459 428.499 C 678.137 426.767 680.24 427.721 681.832 430.931 L 683.501 439.663 L 722.938 375.447 Z " fill="rgb(255,255,0)" vector-effect="non-scaling-stroke" stroke-width="1" stroke="rgb(255,0,0)" stroke-linejoin="miter" stroke-linecap="square" stroke-miterlimit="3"/><path d=" M 648.726 495.031 L 661.22 475.204 C 665.975 470.164 672.449 474.664 669.682 480.533 L 661.976 492.91 L 666.358 492.91 L 717.563 410.269 C 718.558 408.771 720.081 407.961 722.104 407.808 L 757.313 407.808 C 761.418 408.193 763.155 412.14 761.41 415.53 L 736.726 455.167 C 735.835 456.816 734.363 457.673 732.249 457.677 L 719.381 457.677 C 713.302 456.493 712.908 449.072 719.697 447.705 L 726.604 447.705 C 728.554 447.499 730.033 446.729 730.981 445.335 L 746.275 421.064 C 746.907 419.573 746.14 417.851 744.592 417.743 L 727.354 417.747 C 725.476 417.828 724.032 418.623 722.994 420.102 L 673.304 500.519 C 672.154 502.068 670.6 502.901 668.58 502.957 L 653.068 502.957 C 648.568 502.452 646.91 499.057 648.726 495.031 Z " fill="rgb(255,255,0)" vector-effect="non-scaling-stroke" stroke-width="1" stroke="rgb(255,0,0)" stroke-linejoin="miter" stroke-linecap="square" stroke-miterlimit="3"/><g><path d=" M 160.879 22.648 C 162.557 20.107 164.991 18.74 168.132 18.497 L 194.135 18.53 C 200.277 18.607 204.372 25.159 200.994 31.301 L 180.757 64.08 C 174.275 72.454 161.581 64.469 166.95 55.553 L 176.407 39.647 C 176.71 36.918 173.98 35.098 171.316 36.901 L 102.989 146.746 C 94.92 159.187 88.936 159.562 84.257 152.643 L 81.061 129.641 L 37.127 156.714 C 27.221 161.619 21.704 152.736 27.132 143.877 L 66.96 80.239 C 68.857 76.778 70.59 75.767 73.804 75.726 L 96.01 75.663 C 105.687 76.056 107.853 90.21 95.865 91.961 L 83.878 91.961 C 80.311 92.134 77.811 93.532 76.328 96.107 L 54.968 128.487 L 81.474 109.545 C 87.498 106.706 90.942 108.269 93.55 113.528 L 96.284 127.83 L 160.879 22.648 Z " fill="rgb(0,0,0)" vector-effect="non-scaling-stroke" stroke-width="1" stroke="rgb(0,0,0)" stroke-linejoin="miter" stroke-linecap="square" stroke-miterlimit="3"/><path d=" M 39.324 218.52 L 69.616 169.665 C 77.405 161.409 88.008 168.78 83.477 178.394 L 61.027 215.045 L 68.204 215.045 L 152.076 79.684 C 153.705 77.231 156.201 75.903 159.514 75.653 L 217.185 75.653 C 223.909 76.284 226.753 82.749 223.895 88.3 L 183.463 153.224 C 182.005 155.925 179.593 157.329 176.131 157.337 L 155.054 157.337 C 145.097 155.397 144.451 143.242 155.571 141.003 L 166.885 141.003 C 170.079 140.665 172.502 139.404 174.054 137.12 L 199.105 97.366 C 200.14 94.923 198.883 92.103 196.348 91.926 L 168.113 91.932 C 165.037 92.065 162.672 93.368 160.971 95.79 L 79.581 227.509 C 77.698 230.046 75.152 231.41 71.845 231.503 L 46.436 231.503 C 39.066 230.675 36.35 225.115 39.324 218.52 Z " fill="rgb(0,0,0)" vector-effect="non-scaling-stroke" stroke-width="1" stroke="rgb(0,0,0)" stroke-linejoin="miter" stroke-linecap="square" stroke-miterlimit="3"/></g></g></svg>